# xmcd
#
# Track frame offsets:
#	150
#	19650
#	35026
#	55316
#	67550
#	86800
#	111484
#	133535
#	153990
#	171819
#	193763
#	211505
#
# Disc length: 2993 seconds
#
# Revision: 1
# Processed by: cddbd v1.5.1PL0 Copyright (c) Steve Scherf et al.
# Submitted via: audiograbber 1.83.01
#
DISCID=9d0baf0c
DTITLE=Nükhet Duru - Bana Ragmen
DYEAR=1900
DGENRE=
TTITLE0=Askindan Ölebilirim
TTITLE1=Fani Dünya
TTITLE2=Sesini Duyur
TTITLE3=Ne Senden Önce, Ne Senden Sonra
TTITLE4=Hic Bir Zaman
TTITLE5=Yemen Türküsü
TTITLE6=Ben Burdayim
TTITLE7=Bu Ask Biter Mi?
TTITLE8=Tam Zamani
TTITLE9=Yalan Dersin
TTITLE10=Aldim Basimi Gidiyorum
TTITLE11=Tokat
EXTD=
EXTT0=
EXTT1=
EXTT2=
EXTT3=
EXTT4=
EXTT5=
EXTT6=
EXTT7=
EXTT8=
EXTT9=
EXTT10=
EXTT11=
PLAYORDER=
